<?xml version="1.0" encoding="utf-8"?><svg viewBox="0 0 68 31" xmlns="http://www.w3.org/2000/svg" xmlns:xlink="http://www.w3.org/1999/xlink"><style>:root>svg{display:none}:root>svg:target{display:block}</style><svg fill="none" viewBox="0 0 24 24" id="sprite--arrow-right" xmlns="http://www.w3.org/2000/svg"><path d="M14.43 18.82c-.19 0-.38-.07-.53-.22a.754.754 0 010-1.06L19.44 12 13.9 6.46a.754.754 0 010-1.06c.29-.29.77-.29 1.06 0l6.07 6.07c.29.29.29.77 0 1.06l-6.07 6.07c-.15.15-.34.22-.53.22z" fill="#fff"/><path d="M20.33 12.75H3.5c-.41 0-.75-.34-.75-.75s.34-.75.75-.75h16.83c.41 0 .75.34.75.75s-.34.75-.75.75z" fill="#fff"/></svg><svg fill="none" viewBox="0 0 24 24" id="sprite--icons--crown" xmlns="http://www.w3.org/2000/svg"><path d="M17 22H7c-.41 0-.75-.34-.75-.75s.34-.75.75-.75h10c.41 0 .75.34.75.75s-.34.75-.75.75zm3.35-16.48l-4 2.86c-.53.38-1.29.15-1.52-.46l-1.89-5.04c-.32-.87-1.55-.87-1.87 0l-1.9 5.03c-.23.62-.98.85-1.51.46l-4-2.86c-.8-.56-1.86.23-1.53 1.16l4.16 11.65c.14.4.52.66.94.66h9.53c.42 0 .8-.27.94-.66l4.16-11.65c.34-.93-.72-1.72-1.51-1.15zm-5.85 9.23h-5c-.41 0-.75-.34-.75-.75s.34-.75.75-.75h5c.41 0 .75.34.75.75s-.34.75-.75.75z" fill="#B3B4BA"/></svg><svg fill="none" viewBox="0 0 24 24" id="sprite--icons--frame" xmlns="http://www.w3.org/2000/svg"><path d="M12 2C9.38 2 7.25 4.13 7.25 6.75c0 2.57 2.01 4.65 4.63 4.74.08-.01.16-.01.22 0h.07a4.738 4.738 0 004.58-4.74C16.75 4.13 14.62 2 12 2zm5.08 12.15c-2.79-1.86-7.34-1.86-10.15 0-1.27.85-1.97 2-1.97 3.23s.7 2.37 1.96 3.21C8.32 21.53 10.16 22 12 22c1.84 0 3.68-.47 5.08-1.41 1.26-.85 1.96-1.99 1.96-3.23-.01-1.23-.7-2.37-1.96-3.21z" fill="#B3B4BA"/></svg><svg fill="none" viewBox="0 0 24 24" id="sprite--icons--heart" xmlns="http://www.w3.org/2000/svg"><path d="M16.44 3.1c-1.81 0-3.43.88-4.44 2.23A5.549 5.549 0 007.56 3.1C4.49 3.1 2 5.6 2 8.69c0 1.19.19 2.29.52 3.31 1.58 5 6.45 7.99 8.86 8.81.34.12.9.12 1.24 0 2.41-.82 7.28-3.81 8.86-8.81.33-1.02.52-2.12.52-3.31 0-3.09-2.49-5.59-5.56-5.59z" fill="#B3B4BA"/></svg><svg fill="none" viewBox="0 0 24 24" id="sprite--icons--location" xmlns="http://www.w3.org/2000/svg"><path d="M20.62 8.45c-1.05-4.62-5.08-6.7-8.62-6.7h-.01c-3.53 0-7.57 2.07-8.62 6.69-1.17 5.16 1.99 9.53 4.85 12.28A5.436 5.436 0 0012 22.25c1.36 0 2.72-.51 3.77-1.53 2.86-2.75 6.02-7.11 4.85-12.27zM12 13.46a3.15 3.15 0 110-6.3 3.15 3.15 0 010 6.3z" fill="#fff"/></svg><svg fill="none" viewBox="0 0 24 24" id="sprite--icons--user-tag" xmlns="http://www.w3.org/2000/svg"><path d="M18 2H6C4.34 2 3 3.33 3 4.97v10.91c0 1.64 1.34 2.97 3 2.97h.76c.8 0 1.56.31 2.12.87l1.71 1.69c.78.77 2.05.77 2.83 0l1.71-1.69c.56-.56 1.33-.87 2.12-.87H18c1.66 0 3-1.33 3-2.97V4.97C21 3.33 19.66 2 18 2zm-6 3.75c1.29 0 2.33 1.04 2.33 2.33s-1.04 2.33-2.33 2.33-2.33-1.05-2.33-2.33c0-1.29 1.04-2.33 2.33-2.33zm2.68 9.31H9.32c-.81 0-1.28-.9-.83-1.57.68-1.01 2-1.69 3.51-1.69 1.51 0 2.83.68 3.51 1.69.45.67-.03 1.57-.83 1.57z" fill="#B3B4BA"/></svg><svg fill="none" viewBox="0 0 68 31" id="sprite--logo" xmlns="http://www.w3.org/2000/svg"><path d="M15.493 28.29a8.032 8.032 0 01-4.663 2.139 14.014 14.014 0 01-3.071.06 10.297 10.297 0 01-5.666-1.94A4.887 4.887 0 010 24.573c.016-5.768-.014-11.537.019-17.306A6.833 6.833 0 011.627 2.97 8.163 8.163 0 016.652.222a13.98 13.98 0 013.926-.156 9.478 9.478 0 015.477 2.068 5.907 5.907 0 012.148 3.852c.09.673.036 1.336.087 2.035h-5.806a5.563 5.563 0 00-.263-1.392 1.845 1.845 0 00-1.117-1.212 4.45 4.45 0 00-3.883.06 2.548 2.548 0 00-1.395 2.13c-.207 2.122-.068 4.251-.088 6.377a543.191 543.191 0 000 7.916 4.082 4.082 0 00.522 2.291 2.932 2.932 0 002.225 1.28 4.703 4.703 0 002.13-.197 2.402 2.402 0 001.757-2.075c.243-1.674.026-3.36.118-5.084h-2.386v-4.877h8.156v16.813c-.464 0-.934.021-1.403-.006-.321-.02-.38-.368-.55-.564-.293-.381-.565-.78-.814-1.192zm28.582 1.851c-1.372 0-2.741.039-4.107-.017a1.654 1.654 0 01-1.293-.962 7.87 7.87 0 01-.836-2.774c-.088-.547-.135-1.098-.205-1.675H31.05c-.171 1.023-.313 2.028-.515 3.022-.112.78-.48 1.5-1.048 2.047a1.257 1.257 0 01-.805.356c-1.213.022-2.426.01-3.682.01.342-1.746.703-3.448 1.007-5.168.376-2.121.79-4.235 1.2-6.348.43-2.218.8-4.448 1.216-6.67.32-1.705.683-3.401 1.001-5.106.329-1.766.592-3.546.948-5.306A1.674 1.674 0 0132.147.04c1.538.011 3.077.033 4.614 0a1.936 1.936 0 012.154 1.652c.322 1.353.514 2.736.764 4.106.197 1.09.402 2.18.597 3.27.235 1.313.46 2.627.69 3.94.22 1.223.45 2.445.671 3.669.24 1.326.478 2.653.714 3.98.19 1.062.377 2.125.572 3.186.236 1.296.481 2.591.718 3.887.15.79.287 1.586.434 2.411zM34.462 5.858c-.047.054-.111.094-.119.142l-.296 1.82c-.168 1.005-.344 2.008-.516 3.011l-.592 3.454c-.202 1.182-.41 2.364-.607 3.546a51.626 51.626 0 00-.31 2.092.457.457 0 00.468.551c1.321.019 2.643.019 3.965 0 .344 0 .562-.225.432-.574a4.04 4.04 0 01-.146-.747c-.395-2.243-.748-4.493-1.13-6.738-.368-2.183-.76-4.357-1.149-6.557zM61.825 24.97c.34-.69.498-1.458.46-2.228-.014-5.277-.008-10.554-.008-15.831a2.399 2.399 0 00-1.557-2.394 2.41 2.41 0 00-1.002-.147 4.4 4.4 0 00-1.48.156 2.315 2.315 0 00-1.498 1.767 4.683 4.683 0 00-.091 1.267c0 5.17-.009 10.341 0 15.51 0 1.504.529 2.436 2.016 2.785a.907.907 0 01.178.092 7.97 7.97 0 00-1.11 1.348l3.723 2.791a7.418 7.418 0 01-1.196.129 12.278 12.278 0 01-4.92-.636 6.255 6.255 0 01-3.956-4.038 7.53 7.53 0 01-.376-2.395c0-5.417-.024-10.834.012-16.245a6.384 6.384 0 011.107-3.749A6.4 6.4 0 0155.214.748a12.6 12.6 0 015.41-.69c1.324.059 2.621.4 3.803 1.001a6.311 6.311 0 013.28 4.191c.138.558.204 1.131.197 1.706-.007 5.583.015 11.168-.02 16.751a5.782 5.782 0 01-1.38 3.758c-.728-.554-1.423-1.12-2.156-1.63a4.709 4.709 0 00-2.523-.864z" fill="#051655"/><path d="M67.78 29.282a3.605 3.605 0 01-2.773 1.707 4.739 4.739 0 01-3.368-1.242c-.986-.788-2.002-1.521-3.005-2.28-.221-.17-.295-.296-.081-.592a3.283 3.283 0 012.377-1.344 4.553 4.553 0 013.623 1.28c.952.796 1.972 1.507 2.966 2.257.072.054.142.115.261.213z" fill="#EB3D35"/></svg></svg>